<?xml version="1.0" encoding="UTF-8"?>
<svg width="475px" height="266px" viewBox="0 0 475 266" version="1.1" xmlns="http://www.w3.org/2000/svg" xmlns:xlink="http://www.w3.org/1999/xlink">
    <title>Data_Ventures_Spark</title>
    <g id="Data_Ventures_Spark" stroke="none" stroke-width="1" fill="none" fill-rule="evenodd">
        <g id="Group" transform="translate(0.000000, 1.000000)">
            <path d="M316.778001,154.927496 C319.923467,160.189299 319.681682,166.082954 316.355442,168.736734 L258.49875,207.828772 C252.492537,211.17541 243.467399,207.120662 238.346978,198.590658 C233.212999,190.036687 234.123647,180.480468 240.129861,177.114221 L304.182579,148.388916 C308.19124,146.933477 313.630275,149.661335 316.778001,154.927496 M392.219601,154.927496 C395.374104,149.661335 400.797319,146.933477 404.805978,148.388916 L468.867696,177.114221 C474.898762,180.480468 475.764217,190.036687 470.666395,198.590658 C465.523381,207.120662 456.48921,211.17541 450.492038,207.828772 L392.635381,168.736734 C389.32722,166.082954 389.071877,160.180584 392.219601,154.927496 M354.477264,175 C360.818238,175 366.026976,178.200704 366.734054,182.363174 L373,251.543687 C373,258.393771 364.801524,264 354.484085,264 C344.187108,264 336,258.393771 336,251.543687 L342.252304,182.363174 C342.945742,178.200704 348.1613,175 354.477264,175 M392.635381,95.2942056 L450.492038,56.1777201 C456.48921,52.8228867 465.523381,56.8617575 470.666395,65.4165826 C475.764217,73.9648722 474.898762,83.5130765 468.867696,86.8635529 L404.805978,115.619267 C400.797319,117.057053 395.367325,114.32526 392.219601,109.068628 C389.071877,103.811997 389.32722,97.9170753 392.635381,95.2942056 M304.182117,115.619608 L240.129827,86.8637319 C234.123653,83.5132366 233.213011,73.9649787 238.346956,65.4166411 C243.467343,56.861768 252.49242,52.8228745 258.498594,56.1777267 L316.3549,95.2944319 C319.681117,97.9173163 319.925161,103.803557 316.775196,109.068932 C313.632011,114.321236 308.190752,117.057402 304.182117,115.619608 M342.252304,81.6188623 L336,12.4551148 C336,5.61579341 344.187108,0 354.484085,0 C364.801524,0 373,5.61579341 373,12.4551148 L366.734054,81.6188623 C366.026976,85.7846307 360.818238,89 354.477264,89 C348.1613,89 342.945742,85.7846307 342.252304,81.6188623" id="Fill-1" stroke="#FEC222" stroke-width="0.8" fill="#FFC003"></path>
            <rect id="Rectangle" fill="#FFC220" x="44" y="69" width="175" height="23" rx="11.5"></rect>
            <rect id="Rectangle-Copy" fill="#FFC220" x="72" y="172" width="147" height="23" rx="11.5"></rect>
            <rect id="Rectangle-Copy-2" fill="#FFC220" x="0" y="120" width="219" height="23" rx="11.5"></rect>
        </g>
    </g>
</svg>